<svg xmlns="http://www.w3.org/2000/svg" fill="none" viewBox="0 0 33 52">
  <path fill="#fff" d="M32.39 8.31v-.13c0-.06-.07-.06-.07-.12l-3.81-2.03a.2.2 0 0 0-.26 0l-6.17 2.03h-.06c-.07 0-.07.06-.13.12 0 .07-.07.07-.07.13v14.94l-.5-.31a.2.2 0 0 0-.26 0l-3.12 1.2v-6.46-.12c0-.07-.06-.07-.06-.13l-3.82-2.03a.2.2 0 0 0-.25 0l-6.17 2.03h-.07c-.06 0-.06.06-.13.13 0 .06-.06.06-.06.12v7.92l-.7-.38a.2.2 0 0 0-.25 0L.25 27.24H.2c-.06 0-.06.07-.13.13 0 .06-.06.06-.06.13v21.53c0 .12.06.19.2.25L4 51.37c.07 0 .07.06.14.06h.12l6.18-2.09c.12-.06.19-.19.19-.31v-.9l.7.39c.06 0 .06.06.12.06h.13l6.17-2.09c.13-.06.2-.19.2-.31v-.83l.7.38c.06 0 .06.07.12.07h.13l6.1-2.1c.13-.06.2-.18.2-.31v-.44l.5.31h.26l6.17-2.09c.13-.06.2-.19.2-.31l.06-32.55zm-28.5 42.3L.7 48.9V28.07l3.18 1.7v20.84zm.31-21.34l-1.9-1.08-1.15-.63 5.34-1.77 3.05 1.64-2.73.95-2.61.89zm5.85 18.24a.2.2 0 0 0 0 .25v1.08l-5.53 1.9v-20.9l2.86-.95 2.67-.89v19.5zm1.09.25l-.51-.25V27.62v-.12c0-.07-.07-.07-.07-.13l-2.48-1.33v-7.66l3.18 1.7-.12 27.68zm.38-28.24l-3.06-1.65 5.35-1.77 3.05 1.65-2.29.76-3.05 1zm5.79 26.47l-5.54 1.9V20.15l5.54-1.9V46zm1.2-1.08l-.57-.32V27.24l.58.32v17.35zm.32-17.86l-.89-.57v-1.64l3.18-1.27 3.06 1.65-5.35 1.83zm5.8 16.09l-5.54 1.9V27.69l5.53-1.9v17.35zm1.01-.7l-.38-.25V25.34v-.12c0-.07-.06-.07-.06-.13l-2.68-1.4V8.95l3.19 1.71-.07 31.8zm.32-32.36l-.7-.38-2.35-1.26 5.34-1.77 3.06 1.64-5.35 1.77zm5.8 30.59l-5.54 1.9V10.65l5.53-1.9v31.92z"/>
  <path fill="#fff" d="M1.34 22.3c.06.07.19.07.31.07.2 0 .39-.07.45-.26l7.25-11.14L17 12.62c.19.06.44-.07.57-.2L25.32 1.6l.96 3.3c.06.18.25.3.44.3h.13c.26-.05.38-.3.32-.56L25.96.34c-.06-.26-.32-.39-.57-.32h-.26l-4.7 1.52c-.26.06-.39.31-.32.57.06.19.25.31.44.31h.13l3.56-1.14-7.38 10.26-7.63-1.65c-.2-.06-.45.07-.58.26L1.21 21.6c-.2.19-.13.57.13.7z"/>
</svg>
