<svg xmlns="http://www.w3.org/2000/svg" fill="none" viewBox="0 0 80 80">
  <path fill="#fff" d="M14.67 25.33h2.66c3.62 0 7.1 1.33 9.79 3.73a1.33 1.33 0 1 0 1.77-1.98 17.31 17.31 0 0 0-11.56-4.41h-2.66a1.33 1.33 0 1 0 0 2.66zM48.26 12.55c-.44.6-.3 1.43.29 1.86l11.35 8.26H49.33A17.35 17.35 0 0 0 32 40c0 8.09-6.58 14.67-14.67 14.67h-2.66a1.33 1.33 0 1 0 0 2.66h2.66c9.56 0 17.34-7.77 17.34-17.33 0-8.09 6.58-14.67 14.66-14.67H59.9L48.55 33.6a1.33 1.33 0 1 0 1.57 2.15L66.27 24 50.12 12.26c-.6-.44-1.43-.3-1.86.29zM48.25 44.55c-.43.6-.3 1.43.3 1.86l11.35 8.26H49.33c-3.58 0-7.02-1.3-9.7-3.67a1.33 1.33 0 1 0-1.76 2 17.31 17.31 0 0 0 11.46 4.33H59.9L48.55 65.6a1.33 1.33 0 1 0 1.57 2.15L66.27 56 50.12 44.26c-.6-.44-1.43-.3-1.87.29z"/>
  <path fill="#fff" d="M40 0C17.94 0 0 17.94 0 40s17.94 40 40 40 40-17.94 40-40S62.06 0 40 0zm0 77.33A37.38 37.38 0 0 1 2.67 40 37.38 37.38 0 0 1 40 2.67 37.38 37.38 0 0 1 77.33 40 37.38 37.38 0 0 1 40 77.33z"/>
</svg>