<svg xmlns="http://www.w3.org/2000/svg" fill="none" viewBox="0 0 54 61">
  <path fill="#fff" d="M52.2 18.5H48.3L31.9.5c-.5-.6-1.5-.7-2.1-.1-.6.5-.7 1.5-.1 2l14.5 16.1H10.3l14.5-16c.6-.6.5-1.6 0-2.1-.7-.6-1.7-.5-2.2 0L6.3 18.6h-4c-.8 0-1.5.7-1.5 1.5s.7 1.5 1.5 1.5h1.5l4.4 20c.7 3.5 3.8 6 7.3 6H32c.8 0 1.5-.6 1.5-1.5 0-.8-.7-1.4-1.5-1.4H15.5c-2.1 0-4-1.5-4.4-3.6L7 21.5h40.8l-1.8 8.4a1.5 1.5 0 0 0 3 .6l1.8-9h1.5c.8 0 1.5-.7 1.5-1.5s-.7-1.5-1.5-1.5z"/>
  <path fill="#fff" d="M44.7 44.5h-4a2.8 2.8 0 0 1-2.7-2.8c0-1.5 1.2-2.8 2.8-2.8h6.9c.8 0 1.5-.6 1.5-1.5 0-.8-.7-1.5-1.5-1.5h-3.5v-2.5a1.5 1.5 0 0 0-3 0v2.5h-.4a5.8 5.8 0 0 0-5.8 5.8c0 3.2 2.6 5.8 5.8 5.8h4c1.5 0 2.7 1.2 2.7 2.7 0 1.6-1.2 2.8-2.8 2.8h-7c-.9 0-1.6.7-1.6 1.5s.7 1.5 1.5 1.5h3.6v2.6a1.5 1.5 0 0 0 3 0V56h.5c3.2 0 5.8-2.6 5.8-5.8 0-3.1-2.6-5.7-5.8-5.7z"/>
</svg>
