<svg xmlns="http://www.w3.org/2000/svg" fill="none" viewBox="0 0 76 74">
  <path fill="#fff" d="M39.468 49.332h-22.2v-7.4a1.233 1.233 0 0 0-2.106-.872l-14.8 14.8a1.233 1.233 0 0 0-.035 1.71l14.8 16.033a1.233 1.233 0 0 0 2.14-.837v-7.4h22.2c.682 0 1.234-.552 1.234-1.234V50.566c0-.681-.552-1.234-1.233-1.234zM38.233 62.9h-22.2c-.681 0-1.233.552-1.233 1.233v5.479L2.944 56.766 14.801 44.91v5.656c0 .68.552 1.233 1.233 1.233h22.2v11.1zM73.754 16.526c-.06-.08-.13-.153-.21-.217L53.812.276a1.233 1.233 0 0 0-2.01.957v7.4H34.534c-.681 0-1.233.552-1.233 1.233v13.567c0 .681.552 1.233 1.233 1.233h17.267v7.4a1.233 1.233 0 0 0 1.973.987l19.734-14.8a1.233 1.233 0 0 0 .246-1.727zM54.268 29.6v-6.167c0-.681-.552-1.233-1.233-1.233H35.768V11.1h17.267c.68 0 1.233-.553 1.233-1.234V3.823l16.496 13.405L54.268 29.6zM30.834 8.633h-9.867v2.466h9.867V8.633zM18.5 8.633h-2.467v2.466H18.5V8.633zM13.567 16.033H4.934V18.5h8.633v-2.467zM30.834 22.2H25.9v2.466h4.934v-2.467zM20.966 22.2h-7.4v2.466h7.4v-2.467zM11.101 22.2H8.635v2.466H11.1v-2.467zM6.168 22.2H3.7v2.466h2.467v-2.467zM22.201 16.033h-2.467V18.5h2.467v-2.467zM30.835 16.033h-6.167V18.5h6.167v-2.467zM2.467 16.033H0V18.5h2.467v-2.467zM55.501 49.334H43.168v2.467h12.333v-2.467zM60.433 49.334h-2.466v2.467h2.466v-2.467zM69.067 56.732h-8.633V59.2h8.633v-2.467zM45.635 62.9h-2.467v2.467h2.467V62.9zM64.134 62.9h-7.4v2.467h7.4V62.9zM69.068 62.9h-2.466v2.467h2.466V62.9zM75.234 62.9h-2.466v2.467h2.466V62.9zM55.502 56.732h-2.467V59.2h2.467v-2.467zM50.568 56.732h-7.4V59.2h7.4v-2.467zM74.002 56.732h-2.467V59.2h2.467v-2.467zM50.568 62.9h-2.466v2.467h2.466V62.9zM74.002 49.334h-7.4v2.467h7.4v-2.467zM8.634 8.633h-7.4v2.466h7.4V8.633z"/>
</svg>