<svg xmlns="http://www.w3.org/2000/svg" fill="none" viewBox="0 0 38 33">
  <path fill="#fff" d="M15.4 22.4l1.2-1.8c.2-.5.1-1-.4-1.3-.4-.3-1-.2-1.2.3l-1.1 1.8c-2 3.3-5 5.2-8 5.2H1.8a1 1 0 0 0-1 1c0 .5.4 1 1 1h4c3.8-.1 7.3-2.4 9.6-6.2zM37.3 4.7L33 .3c-.4-.4-1-.4-1.3 0-.3.4-.4 1 0 1.3l3 2.9h-4.3c-3.7 0-7.2 2.2-9.6 6l-.7 1.2c-.2.5-.1 1 .3 1.3l.5.1c.3 0 .7-.1.8-.5l.7-1c2-3.4 5-5.3 8-5.3h4.3l-3 3c-.4.3-.4.9 0 1.2.2.2.4.2.7.2.2 0 .4 0 .6-.2l4.4-4.4c.4-.4.4-1 0-1.4z"/>
  <path fill="#fff" d="M31.6 32.7l.6.2c.2 0 .5 0 .6-.2l4.5-4.5c.3-.4.3-1 0-1.2l-4.5-4.5c-.4-.4-1-.4-1.2 0-.4.4-.4 1 0 1.3l2.9 3h-4.1c-3 0-6-2-8-5.3l-6.8-11c-2.4-3.8-5.8-6-9.6-6H1.8a1 1 0 0 0-1 1c0 .4.4.9 1 .9H6c3 0 6 1.9 8 5.2l6.8 11c2.4 3.8 5.9 6 9.6 6h4l-2.8 3c-.4.1-.4.7 0 1zm3.8-5.2z"/>
</svg>
