<svg xmlns="http://www.w3.org/2000/svg" fill="none" viewBox="0 0 41 41">
  <path fill="#fff" d="M29.5 9.1a11 11 0 0 0-11 10.4h-3.2V7C15.3 5.3 14 4 12.1 4h-1.3V0H.5v9.1H5v6.5H.5v9H5v6.6H.5v9h10.3v-3.8h1.3c1.8 0 3.2-1.4 3.2-3.2V20.8h3.3a11 11 0 0 0 22-.6c0-6.1-5-11.1-11-11.1zM1.7 7.8V1.3h7.8v6.5H1.7zm0 15.5V17h7.8v6.4H1.7zM9.5 39H1.7v-6.5h7.8V39zm4.6-5.8a2 2 0 0 1-2 2h-1.3v-4H6.3v-6.4h4.5v-3.9h3.3v12.3zm0-13.6h-3.3v-4H6.3V9.2h4.5V5.2h1.3a2 2 0 0 1 2 2v12.3zm15.4 10.3a9.7 9.7 0 1 1 0-19.4 9.7 9.7 0 0 1 0 19.4z"/>
</svg>
