<svg xmlns="http://www.w3.org/2000/svg" fill="none" viewBox="0 0 23 23">
  <path fill="#fff" d="M20.5 0a2.51 2.51 0 0 0-2.21 3.7l-4.11 4.12a3.32 3.32 0 0 0-4.1 0L6.88 4.6a1.67 1.67 0 1 0-1.44.83c.3 0 .6-.1.84-.24l3.2 3.2a3.33 3.33 0 0 0 0 4.1L4.2 17.8A2.5 2.5 0 0 0 0 19.65a2.51 2.51 0 1 0 4.71-1.2l5.37-5.36c.46.36 1.02.6 1.63.68v4.25a2.51 2.51 0 1 0 .84 0v-4.25a3.33 3.33 0 0 0 1.63-.68l3.2 3.21a1.67 1.67 0 1 0 1.44-.83c-.31 0-.6.1-.85.24l-3.2-3.2a3.33 3.33 0 0 0 0-4.1l4.04-4.05c.44.4 1.03.66 1.68.66a2.51 2.51 0 0 0 0-5.02zM4.6 3.76a.84.84 0 1 1 1.67 0 .84.84 0 0 1-1.67 0zM2.5 21.33a1.67 1.67 0 1 1 .01-3.35 1.67 1.67 0 0 1 0 3.35zm11.3-.84a1.67 1.67 0 1 1-3.35 0 1.67 1.67 0 0 1 3.35 0zm-1.67-7.53a2.51 2.51 0 1 1 0-5.02 2.51 2.51 0 0 1 0 5.02zm7.52 4.19a.84.84 0 1 1-1.67 0 .84.84 0 0 1 1.67 0zm.84-12.97a1.67 1.67 0 1 1 0-3.35 1.67 1.67 0 0 1 0 3.35z"/>
</svg>
