<svg xmlns="http://www.w3.org/2000/svg" fill="none" viewBox="0 0 74 74">
  <path fill="#E6E6ED" d="M11.1 44.4C3.57 44.4.53 47.07.4 47.19a1.23 1.23 0 0 0-.4.91v22.2c0 .35.15.68.4.92.13.11 3.17 2.78 10.7 2.78 7.53 0 10.57-2.67 10.7-2.79.25-.23.4-.56.4-.91V48.1c0-.35-.15-.68-.4-.91-.13-.12-3.17-2.79-10.7-2.79zm-6.84 3.5l.04-.01c.26-.1.55-.19.86-.28l.25-.06a18 18 0 0 1 .83-.2l.25-.06 1.2-.2.28-.03c.36-.05.73-.08 1.13-.11l.4-.03c.51-.03 1.04-.05 1.6-.05a26.93 26.93 0 0 1 3.14.19l.27.03c.43.06.83.13 1.2.2l.26.06c.29.06.57.13.82.2a14.6 14.6 0 0 1 1.1.34l.08.02.48.2a19.29 19.29 0 0 1-7.35 1.22 19.3 19.3 0 0 1-7.35-1.23l.51-.2zm-1.8 2.33a21.14 21.14 0 0 0 8.64 1.57 21.14 21.14 0 0 0 8.63-1.57v4.63l-.03.02a7.56 7.56 0 0 1-.38.22l-.08.04-.47.22-.13.06c-.2.1-.43.18-.68.27l-.16.06-.74.23-.17.05a17.15 17.15 0 0 1-1 .24l-.26.05c-.34.07-.7.13-1.09.18l-.15.03a23.39 23.39 0 0 1-1.7.15 26.44 26.44 0 0 1-3.18 0l-.34-.02a23.58 23.58 0 0 1-1.37-.13l-.14-.02-1.1-.19-.24-.05a17.05 17.05 0 0 1-1.01-.24l-.15-.04-.78-.25-.13-.04a12.15 12.15 0 0 1-.7-.28l-.09-.04a9.88 9.88 0 0 1-.55-.27 7.46 7.46 0 0 1-.44-.24v-4.64zm17.27 19.43c-.95.59-3.62 1.87-8.63 1.87-5.02 0-7.69-1.28-8.63-1.87v-4.62l.16.06.44.19.27.1.48.16a17.2 17.2 0 0 0 1.8.5l.42.08.63.12.47.07.73.1.48.05.87.07.45.03a30.07 30.07 0 0 0 2.86 0l.45-.03.87-.07.48-.06c.25-.02.5-.05.73-.09l.47-.07a21.6 21.6 0 0 0 1.06-.2 19.67 19.67 0 0 0 .95-.24l.52-.15a15.39 15.39 0 0 0 .8-.27l.27-.1.44-.19.16-.06v4.62zm0-7.4l-.03.02a7.52 7.52 0 0 1-.38.22l-.08.04-.47.22-.13.06c-.2.1-.43.18-.68.27l-.16.06-.74.23-.17.05c-.31.09-.65.17-1 .24l-.26.05c-.34.07-.7.13-1.09.19l-.15.02a23.38 23.38 0 0 1-1.7.15 26.44 26.44 0 0 1-3.18 0l-.35-.02a23.5 23.5 0 0 1-1.36-.13l-.15-.03a19.83 19.83 0 0 1-1.09-.18l-.25-.05a16.98 16.98 0 0 1-1-.24l-.18-.05a14.57 14.57 0 0 1-.74-.24l-.15-.05a10.5 10.5 0 0 1-.68-.27l-.13-.06a9.75 9.75 0 0 1-.48-.23l-.06-.03a7.42 7.42 0 0 1-.4-.22l-.02-.02v-4.62l.16.06.44.19.27.1.48.16a17.5 17.5 0 0 0 1.8.5 20.25 20.25 0 0 0 1.05.2l.47.07.73.1.48.05.87.07.45.03a30.06 30.06 0 0 0 2.86 0l.45-.03.87-.07.48-.06c.25-.02.5-.05.73-.09l.46-.07.64-.12a19.89 19.89 0 0 0 1-.22 19.1 19.1 0 0 0 .9-.25 15.38 15.38 0 0 0 .8-.27l.27-.1.44-.19.16-.06v4.62zM73.6 17.6c-.12-.12-3.16-2.79-10.69-2.79-7.53 0-10.57 2.67-10.7 2.79a1.23 1.23 0 0 0-.4.91v51.8c0 .35.15.68.4.91.13.12 3.17 2.8 10.7 2.8 7.53 0 10.57-2.68 10.7-2.8.25-.23.4-.56.4-.9V18.5c0-.35-.15-.68-.4-.92zm-17.53.71l.04-.01c.26-.1.55-.19.86-.27l.25-.07.83-.2.26-.06c.37-.07.77-.14 1.2-.2l.27-.03c.36-.05.73-.08 1.13-.11l.4-.03c.51-.03 1.04-.05 1.6-.05a26.93 26.93 0 0 1 3.14.19l.27.03c.43.06.83.13 1.2.2l.26.06c.3.06.57.13.82.2l.26.07c.3.08.6.17.85.27l.07.02.48.2a19.29 19.29 0 0 1-7.35 1.22 19.3 19.3 0 0 1-7.35-1.23l.51-.2zm-1.8 2.33a21.14 21.14 0 0 0 8.64 1.57 21.14 21.14 0 0 0 8.63-1.57v4.63l-.03.02a7.56 7.56 0 0 1-.38.22l-.08.04-.47.22-.13.06c-.2.1-.43.18-.68.27l-.16.06c-.23.08-.48.16-.74.23l-.17.05c-.31.09-.65.17-1 .24l-.25.05-1.1.19-.15.02a23.48 23.48 0 0 1-1.7.15 26.44 26.44 0 0 1-3.18 0c-.11 0-.23 0-.34-.02a23.58 23.58 0 0 1-1.37-.13l-.14-.02-1.1-.19-.24-.05a17.05 17.05 0 0 1-1.01-.24l-.15-.04-.78-.25-.12-.04a12.15 12.15 0 0 1-.71-.28l-.09-.04a9.88 9.88 0 0 1-.55-.27 7.46 7.46 0 0 1-.43-.24h-.01v-4.64zm0 7.4l.17.07c.14.07.29.13.45.19l.26.1.48.16a17.5 17.5 0 0 0 1.8.5 20.26 20.26 0 0 0 1.06.2l.46.07.73.1.48.05.87.07.45.03a29.94 29.94 0 0 0 2.86 0l.45-.03.87-.07.48-.05.73-.1.47-.07a21.54 21.54 0 0 0 1.06-.2 19.27 19.27 0 0 0 1.47-.4l.32-.1.48-.16.27-.1.44-.19.16-.06v4.62l-.03.02a7.52 7.52 0 0 1-.38.22l-.08.04-.47.22-.13.06c-.2.1-.43.18-.68.27l-.16.06a14.4 14.4 0 0 1-.74.23l-.17.05c-.31.09-.65.17-1 .24l-.26.05c-.34.07-.7.13-1.09.19l-.15.02a23.47 23.47 0 0 1-1.7.15c-.5.03-1.03.05-1.59.05a26.88 26.88 0 0 1-1.94-.07 23.5 23.5 0 0 1-1.36-.13l-.15-.03a19.74 19.74 0 0 1-1.09-.18l-.25-.05a16.99 16.99 0 0 1-1-.24l-.18-.05a14.37 14.37 0 0 1-.74-.24l-.15-.05-.68-.27-.13-.06a9.76 9.76 0 0 1-.48-.23l-.06-.03a7.4 7.4 0 0 1-.4-.22l-.02-.02v-4.62zm0 7.4l.17.07c.14.07.29.13.45.19l.26.1.48.16a17.5 17.5 0 0 0 1.8.5 20.26 20.26 0 0 0 1.06.2l.46.07.73.1.48.05.87.07.45.03a29.94 29.94 0 0 0 2.86 0l.45-.03.87-.07.48-.06c.25-.02.5-.05.73-.09l.47-.07a21.54 21.54 0 0 0 1.06-.2 19.27 19.27 0 0 0 1.47-.4l.32-.1.48-.16.27-.1.44-.19.16-.06v4.62l-.03.02a7.52 7.52 0 0 1-.38.22l-.08.04-.47.22-.13.06c-.2.1-.43.18-.68.27l-.16.06a14.4 14.4 0 0 1-.74.23l-.17.05c-.31.09-.65.17-1 .24l-.26.05c-.34.07-.7.13-1.09.19l-.15.02a23.38 23.38 0 0 1-1.7.15c-.5.03-1.03.05-1.59.05a26.88 26.88 0 0 1-1.94-.07 23.5 23.5 0 0 1-1.36-.13l-.15-.03a19.83 19.83 0 0 1-1.09-.18l-.25-.05a17.07 17.07 0 0 1-1-.24l-.18-.05a14.47 14.47 0 0 1-.74-.24l-.15-.05-.68-.27-.13-.06a9.85 9.85 0 0 1-.48-.23l-.06-.03a7.41 7.41 0 0 1-.4-.22l-.02-.02v-4.62zm0 7.4l.17.07c.14.07.29.13.45.19l.26.1.48.16a17.5 17.5 0 0 0 1.8.5 20.26 20.26 0 0 0 1.06.2l.46.07.73.1.48.05.87.07.45.03a30.07 30.07 0 0 0 2.86 0l.45-.03.87-.07.48-.06c.25-.02.5-.05.73-.09l.47-.07a21.54 21.54 0 0 0 1.06-.2 19.27 19.27 0 0 0 1.47-.4l.32-.1.48-.16.27-.1.44-.19.16-.06v4.62l-.03.02a7.52 7.52 0 0 1-.38.22l-.08.04-.47.22-.13.06c-.2.1-.43.18-.68.27l-.16.06-.74.23-.17.05c-.31.09-.65.17-1 .24l-.26.05c-.34.07-.7.13-1.09.19l-.15.02a23.38 23.38 0 0 1-1.7.15c-.5.03-1.03.05-1.59.05a26.88 26.88 0 0 1-1.94-.07 23.5 23.5 0 0 1-1.36-.13l-.15-.03a19.74 19.74 0 0 1-1.09-.18l-.25-.05a16.99 16.99 0 0 1-1-.24l-.18-.05a14.37 14.37 0 0 1-.74-.24l-.15-.05-.68-.27-.13-.06a9.66 9.66 0 0 1-.48-.23l-.06-.03a7.4 7.4 0 0 1-.4-.22l-.02-.02v-4.62zm0 7.4l.17.07c.14.07.29.13.45.19l.26.1.48.16a17.5 17.5 0 0 0 1.8.5 20.26 20.26 0 0 0 1.06.2l.46.07.73.1.48.05.87.07.45.03a30.07 30.07 0 0 0 2.86 0l.45-.03.87-.07.48-.06c.25-.02.5-.05.73-.09l.47-.07a21.54 21.54 0 0 0 1.06-.2 19.27 19.27 0 0 0 1.47-.4l.32-.1.48-.16.27-.1.44-.19.16-.06v4.62l-.03.02a7.52 7.52 0 0 1-.38.22l-.08.04-.47.22-.13.06c-.2.1-.43.18-.68.27l-.16.06a14.4 14.4 0 0 1-.74.23l-.17.05c-.31.09-.65.17-1 .24l-.26.05c-.34.07-.7.13-1.09.19l-.15.02a23.38 23.38 0 0 1-1.7.15c-.5.03-1.03.05-1.59.05a26.88 26.88 0 0 1-1.59-.05l-.35-.02a23.5 23.5 0 0 1-1.36-.13l-.15-.03a19.74 19.74 0 0 1-1.09-.18l-.25-.05a16.99 16.99 0 0 1-1-.24l-.18-.05a14.28 14.28 0 0 1-.74-.24l-.15-.05-.68-.27-.13-.06a9.66 9.66 0 0 1-.48-.23l-.06-.03a7.4 7.4 0 0 1-.4-.22l-.02-.02v-4.62zm0 7.4l.17.07.45.19.26.1.48.16a17.5 17.5 0 0 0 1.8.5 19.65 19.65 0 0 0 1.06.2l.46.07.73.1.48.05.87.07.45.03a30.07 30.07 0 0 0 2.86 0l.45-.03.87-.07.48-.06c.25-.02.5-.05.73-.09l.47-.07a21.87 21.87 0 0 0 1.06-.2 19.27 19.27 0 0 0 1.47-.4l.32-.1.48-.16.27-.1.44-.19.16-.06v4.62l-.03.02a7.52 7.52 0 0 1-.38.22l-.08.04-.47.22-.13.06c-.2.1-.43.18-.68.27l-.16.06a14.4 14.4 0 0 1-.74.23l-.17.05c-.31.09-.65.17-1 .24l-.26.05c-.34.07-.7.13-1.09.19l-.15.02a23.38 23.38 0 0 1-1.7.15c-.5.03-1.03.05-1.59.05a26.88 26.88 0 0 1-1.59-.05l-.35-.02a23.5 23.5 0 0 1-1.36-.13l-.15-.03a19.83 19.83 0 0 1-1.09-.18l-.25-.05a16.99 16.99 0 0 1-1-.24l-.18-.05a14.57 14.57 0 0 1-.74-.24l-.15-.05a11.5 11.5 0 0 1-.68-.27l-.13-.06a9.75 9.75 0 0 1-.48-.23l-.06-.03a7.41 7.41 0 0 1-.4-.22l-.02-.02v-4.62zm17.27 12.03c-.95.6-3.62 1.87-8.63 1.87-5.02 0-7.69-1.28-8.63-1.86v-4.63l.16.06.45.19.26.1.48.16a17.2 17.2 0 0 0 1.8.5l.42.08.64.12.46.07.73.1.48.05.87.07.45.03a30.07 30.07 0 0 0 2.86 0l.45-.03.87-.07.48-.05.73-.1.47-.07a21.54 21.54 0 0 0 1.06-.2 19.58 19.58 0 0 0 .95-.24l.52-.15.32-.1.48-.17.27-.1.44-.19.16-.06v4.62zM37 29.6c-7.53 0-10.57 2.67-10.7 2.79a1.23 1.23 0 0 0-.4.91v37c0 .35.15.68.4.91.13.12 3.17 2.79 10.7 2.79 7.53 0 10.57-2.67 10.7-2.79.25-.23.4-.56.4-.91v-37c0-.35-.15-.68-.4-.92-.13-.11-3.17-2.78-10.7-2.78zm-6.84 3.5l.05-.02c.25-.09.54-.18.85-.27l.25-.06.83-.2.25-.06c.38-.08.78-.14 1.2-.2l.28-.03c.36-.05.73-.09 1.13-.11l.4-.03c.51-.03 1.04-.05 1.6-.05a26.93 26.93 0 0 1 3.14.19l.27.03c.43.06.83.13 1.2.2l.26.06c.29.06.57.13.82.2l.26.07c.3.08.6.17.85.27l.07.02c.17.06.33.13.48.2A19.29 19.29 0 0 1 37 34.52a19.3 19.3 0 0 1-7.35-1.23l.51-.2zm-1.8 2.33A21.14 21.14 0 0 0 37 37a21.14 21.14 0 0 0 8.63-1.57v4.63l-.03.02a7.56 7.56 0 0 1-.38.22l-.08.04-.47.22-.13.06-.68.27-.16.06-.74.23-.17.05a17.15 17.15 0 0 1-1 .24l-.26.05c-.34.07-.7.13-1.09.18l-.15.03a23.39 23.39 0 0 1-1.7.15 26.41 26.41 0 0 1-3.18 0 23.67 23.67 0 0 1-1.7-.15l-.15-.02-1.1-.19-.24-.05a17.12 17.12 0 0 1-1.01-.24l-.15-.04-.78-.25-.12-.04a12.08 12.08 0 0 1-.71-.28l-.09-.04a9.88 9.88 0 0 1-.55-.27 7.35 7.35 0 0 1-.43-.24h-.01v-4.64zm17.27 34.23c-.95.59-3.62 1.87-8.63 1.87-5.02 0-7.69-1.29-8.63-1.87v-4.63l.16.07.44.19.27.1.48.16a17.2 17.2 0 0 0 1.8.5 20.25 20.25 0 0 0 1.06.2l.46.07.73.1.48.05c.28.03.58.04.87.06l.45.03a30.07 30.07 0 0 0 2.86 0c.16 0 .3-.02.45-.03.3-.02.6-.03.87-.06l.48-.06c.25-.03.5-.05.73-.09l.46-.07a21.54 21.54 0 0 0 1.07-.21 19.66 19.66 0 0 0 .95-.23 21 21 0 0 0 .52-.16l.32-.1c.17-.05.32-.1.48-.17l.27-.1.44-.18.16-.07v4.63zm0-7.4l-.03.02a7.52 7.52 0 0 1-.38.22l-.08.04-.47.22-.13.06-.68.27-.16.06-.74.23-.17.05c-.31.09-.65.17-1 .24l-.26.05c-.34.07-.7.13-1.09.18l-.14.03a23.47 23.47 0 0 1-1.71.15c-.5.03-1.03.05-1.59.05a26.88 26.88 0 0 1-1.59-.05l-.35-.02a23.5 23.5 0 0 1-1.36-.13l-.15-.03a19.73 19.73 0 0 1-1.09-.18l-.25-.05a16.99 16.99 0 0 1-1-.24l-.17-.05a14.37 14.37 0 0 1-.75-.24l-.15-.05-.68-.27-.13-.06a9.76 9.76 0 0 1-.48-.23l-.06-.03a7.41 7.41 0 0 1-.4-.22l-.02-.02v-4.63l.16.07.44.18.27.1.48.17a17.2 17.2 0 0 0 1.8.5 20.25 20.25 0 0 0 1.06.2l.46.07.73.1.48.05c.28.03.58.04.87.06l.45.03a30.07 30.07 0 0 0 2.86 0c.16 0 .3-.02.45-.03.3-.02.6-.03.87-.06l.48-.06c.25-.03.5-.05.73-.09l.46-.07a21.87 21.87 0 0 0 1.07-.21 19.66 19.66 0 0 0 .95-.23l.52-.16.32-.1c.17-.05.32-.1.48-.17l.27-.1.44-.18.16-.07v4.63zm0-7.4l-.03.02a7.52 7.52 0 0 1-.38.22l-.08.04-.47.22-.13.06-.68.27-.16.06-.74.23-.17.05c-.31.09-.65.17-1 .24l-.26.05c-.34.07-.7.13-1.09.18l-.14.03a23.47 23.47 0 0 1-1.71.15c-.5.03-1.03.05-1.59.05a26.88 26.88 0 0 1-1.94-.07 23.5 23.5 0 0 1-1.36-.14l-.15-.02a19.83 19.83 0 0 1-1.09-.18l-.25-.05a17.07 17.07 0 0 1-1-.24l-.17-.05a14.27 14.27 0 0 1-.75-.24l-.15-.05-.68-.27-.13-.06a9.85 9.85 0 0 1-.48-.23l-.06-.03a7.42 7.42 0 0 1-.4-.22l-.02-.02v-4.63l.16.07.44.18.27.1.48.17a17.5 17.5 0 0 0 1.8.5 20.25 20.25 0 0 0 1.06.2l.46.07.73.1.48.05c.28.03.58.04.87.06l.45.03a30.07 30.07 0 0 0 2.86 0c.16 0 .3-.02.45-.03.3-.02.6-.03.87-.06l.48-.06.73-.09.46-.08a21.6 21.6 0 0 0 1.07-.2 19.35 19.35 0 0 0 1.46-.39 15.39 15.39 0 0 0 .8-.27l.28-.1.44-.18.16-.07v4.63zm0-7.4l-.03.02a7.52 7.52 0 0 1-.38.22l-.08.04-.47.22-.13.06-.68.27-.16.06-.74.23-.17.05c-.31.09-.65.17-1 .24l-.26.05c-.34.07-.7.13-1.09.18l-.14.03a23.47 23.47 0 0 1-1.71.15c-.5.03-1.03.05-1.59.05a26.88 26.88 0 0 1-1.94-.07 23.5 23.5 0 0 1-1.36-.14l-.15-.02a19.83 19.83 0 0 1-1.09-.18l-.25-.05a17.07 17.07 0 0 1-1-.24l-.17-.05a14.27 14.27 0 0 1-.75-.24l-.15-.05-.68-.27-.13-.06a9.75 9.75 0 0 1-.48-.23l-.06-.03a7.42 7.42 0 0 1-.4-.22l-.02-.02v-4.63l.16.07.44.18.27.1.48.17a17.5 17.5 0 0 0 1.8.5 20.25 20.25 0 0 0 1.06.2l.46.07.73.1.48.05c.28.03.58.04.87.06l.45.03a30.07 30.07 0 0 0 2.86 0c.16 0 .3-.02.45-.03l.87-.06.48-.06.73-.09.46-.08a21.6 21.6 0 0 0 1.07-.2 19.35 19.35 0 0 0 1.46-.39 16.07 16.07 0 0 0 .8-.27l.28-.1.44-.18.16-.07v4.63z"/>
  <path fill="#E6E6ED" d="M11.1 41.93a1.23 1.23 0 0 0 1.23-1.23V18.5c0-.68.56-1.23 1.24-1.23h22.2v6.63l-.69-.34a1.23 1.23 0 1 0-1.1 2.21L36.45 27l.03.01c.33.16.71.16 1.04 0h.03l2.47-1.24a1.23 1.23 0 1 0-1.1-2.2l-.69.33V3.7c0-.68.56-1.23 1.24-1.23h20.96c.68 0 1.24.55 1.24 1.23v5.4l-.68-.34a1.23 1.23 0 1 0-1.1 2.21l2.46 1.23.03.01c.33.16.71.16 1.04 0h.03l2.47-1.24a1.23 1.23 0 0 0-1.1-2.2l-.69.33V3.7a3.7 3.7 0 0 0-3.7-3.7H39.47a3.7 3.7 0 0 0-3.7 3.7v11.1h-22.2a3.7 3.7 0 0 0-3.7 3.7v22.2a1.23 1.23 0 0 0 1.23 1.23z"/>
</svg>
