<svg xmlns="http://www.w3.org/2000/svg" fill="none" viewBox="0 0 89 89">
  <path fill="#E6E6ED" d="M83.35 58.06a39.67 39.67 0 0 0-17.97-42.95 1.53 1.53 0 1 0-1.6 2.61A36.62 36.62 0 0 1 80.45 57a10.73 10.73 0 1 0 2.9 1.06zm-5.1 17.13a7.68 7.68 0 1 1 .03-15.36 7.68 7.68 0 0 1-.02 15.36zM58.57 83.14a36.9 36.9 0 0 1-40.18-8.1 10.75 10.75 0 0 0-7.65-18.27A10.75 10.75 0 0 0 0 67.53a10.75 10.75 0 0 0 15.93 9.4A39.97 39.97 0 0 0 44.5 89c5.27 0 10.4-1.02 15.25-3.02a1.54 1.54 0 0 0-1.18-2.84zM3.07 67.52a7.68 7.68 0 1 1 15.36.01 7.68 7.68 0 0 1-15.36-.01zM6.14 47.9h.1c.8 0 1.48-.62 1.54-1.43a36.64 36.64 0 0 1 26.42-32.7 10.75 10.75 0 0 0 10.3 7.71c5.92 0 10.74-4.82 10.74-10.74S50.42 0 44.5 0c-5.91 0-10.72 4.8-10.74 10.7A39.7 39.7 0 0 0 4.7 46.26c-.06.84.58 1.58 1.43 1.64zM44.5 3.07a7.68 7.68 0 1 1-.02 15.36 7.68 7.68 0 0 1 .02-15.36z"/>
</svg>