<svg xmlns="http://www.w3.org/2000/svg" fill="none" viewBox="0 0 72 74">
  <path fill="#fff" d="M21.72 4.63H1.14C.51 4.63 0 5.14 0 5.78V26.6c0 .64.51 1.16 1.14 1.16h20.58c.63 0 1.14-.52 1.14-1.16V5.78c0-.64-.51-1.15-1.14-1.15zm-1.15 20.81H2.3V6.94h18.28v18.5z"/>
  <path fill="#fff" d="M26.29 0H5.72c-.64 0-1.15.52-1.15 1.16 0 .64.51 1.15 1.15 1.15h19.43v19.66c0 .64.5 1.16 1.14 1.16.63 0 1.14-.52 1.14-1.16V1.16c0-.64-.5-1.16-1.14-1.16z"/>
  <path fill="#fff" d="M6.52.34a1.13 1.13 0 0 0-1.61 0L.34 4.96a1.16 1.16 0 0 0 0 1.64 1.13 1.13 0 0 0 1.61 0l4.57-4.63c.45-.45.45-1.18 0-1.63zM27.1 21.16a1.13 1.13 0 0 0-1.62 0l-4.57 4.62a1.16 1.16 0 0 0 0 1.64 1.13 1.13 0 0 0 1.62 0l4.57-4.63c.44-.45.44-1.18 0-1.63zM27.1.34a1.13 1.13 0 0 0-1.62 0l-4.57 4.62a1.16 1.16 0 0 0 0 1.64 1.13 1.13 0 0 0 1.62 0l4.57-4.63c.44-.45.44-1.18 0-1.63zM21.72 50.87H1.14c-.63 0-1.14.52-1.14 1.16v20.81C0 73.48.51 74 1.14 74h20.58c.63 0 1.14-.52 1.14-1.16V52.03c0-.64-.51-1.16-1.14-1.16zM20.57 71.7H2.3v-18.5h18.28v18.5z"/>
  <path fill="#fff" d="M26.29 46.24H5.72c-.64 0-1.15.52-1.15 1.16 0 .64.51 1.16 1.15 1.16h19.43v19.66c0 .64.5 1.15 1.14 1.15.63 0 1.14-.51 1.14-1.15V47.4c0-.64-.5-1.16-1.14-1.16z"/>
  <path fill="#fff" d="M6.52 46.58a1.13 1.13 0 0 0-1.61 0L.34 51.21a1.16 1.16 0 0 0 0 1.63 1.13 1.13 0 0 0 1.61 0l4.57-4.62c.45-.45.45-1.18 0-1.64zM27.1 67.4a1.13 1.13 0 0 0-1.62 0l-4.57 4.63a1.16 1.16 0 0 0 0 1.63 1.13 1.13 0 0 0 1.62 0l4.57-4.63c.44-.45.44-1.18 0-1.63zM27.1 46.58a1.13 1.13 0 0 0-1.62 0l-4.57 4.63a1.16 1.16 0 0 0 0 1.63 1.13 1.13 0 0 0 1.62 0l4.57-4.62c.44-.45.44-1.18 0-1.64zM13.72 40.46c-.64 0-1.15.52-1.15 1.16v8.1a1.15 1.15 0 0 0 2.29 0v-8.1c0-.64-.51-1.16-1.14-1.16z"/>
  <path fill="#fff" d="M13.72 31.21a4.6 4.6 0 0 0-4.58 4.63v4.62a4.6 4.6 0 0 0 4.58 4.63 4.6 4.6 0 0 0 4.57-4.63v-4.62a4.6 4.6 0 0 0-4.57-4.63zM16 40.46a2.3 2.3 0 0 1-2.28 2.32 2.3 2.3 0 0 1-2.29-2.32v-4.62a2.3 2.3 0 0 1 2.29-2.32A2.3 2.3 0 0 1 16 35.84v4.62z"/>
  <path fill="#fff" d="M13.72 25.43c-.64 0-1.15.51-1.15 1.15v8.1c0 .64.51 1.16 1.15 1.16.63 0 1.14-.52 1.14-1.16v-8.1c0-.64-.51-1.15-1.14-1.15zM32 58.97h-8c-.64 0-1.15.51-1.15 1.15 0 .64.51 1.16 1.14 1.16h8c.64 0 1.15-.52 1.15-1.16 0-.64-.51-1.15-1.14-1.15z"/>
  <path fill="#fff" d="M37.71 55.5h-4.57a4.6 4.6 0 0 0-4.57 4.62 4.6 4.6 0 0 0 4.57 4.63h4.57a4.6 4.6 0 0 0 4.57-4.63 4.6 4.6 0 0 0-4.57-4.62zm0 6.93h-4.57a2.3 2.3 0 0 1-2.29-2.3 2.3 2.3 0 0 1 2.29-2.32h4.57A2.3 2.3 0 0 1 40 60.12a2.3 2.3 0 0 1-2.29 2.31z"/>
  <path fill="#fff" d="M45.71 58.97h-6.86c-.63 0-1.14.51-1.14 1.15 0 .64.51 1.16 1.14 1.16h6.86c.63 0 1.14-.52 1.14-1.16 0-.64-.5-1.15-1.14-1.15zM32 12.7h-8c-.64 0-1.15.52-1.15 1.16 0 .64.51 1.16 1.14 1.16h8c.64 0 1.15-.52 1.15-1.16 0-.64-.51-1.15-1.14-1.15z"/>
  <path fill="#fff" d="M37.71 9.24h-4.57a4.6 4.6 0 0 0-4.57 4.62 4.6 4.6 0 0 0 4.57 4.63h4.57a4.6 4.6 0 0 0 4.57-4.63 4.6 4.6 0 0 0-4.57-4.62zm0 6.94h-4.57a2.3 2.3 0 0 1-2.29-2.32 2.3 2.3 0 0 1 2.29-2.3h4.57a2.3 2.3 0 0 1 2.29 2.3 2.3 2.3 0 0 1-2.29 2.32z"/>
  <path fill="#fff" d="M45.71 12.7h-6.86c-.63 0-1.14.52-1.14 1.16 0 .64.51 1.16 1.14 1.16h6.86c.63 0 1.14-.52 1.14-1.16 0-.64-.5-1.15-1.14-1.15z"/>
  <path fill="#fff" d="M66.28 4.63H45.71c-.63 0-1.14.51-1.14 1.15V26.6c0 .64.5 1.16 1.14 1.16h20.57c.64 0 1.15-.52 1.15-1.16V5.78c0-.64-.51-1.15-1.15-1.15zm-1.14 20.81H46.85V6.94h18.3v18.5z"/>
  <path fill="#fff" d="M70.86 0H50.28c-.63 0-1.14.52-1.14 1.16 0 .64.51 1.15 1.14 1.15h19.43v19.66c0 .64.51 1.16 1.15 1.16.63 0 1.14-.52 1.14-1.16V1.16C72 .52 71.49 0 70.86 0z"/>
  <path fill="#fff" d="M51.1.34a1.13 1.13 0 0 0-1.62 0L44.9 4.96a1.16 1.16 0 0 0 0 1.64 1.13 1.13 0 0 0 1.62 0l4.57-4.63c.45-.45.45-1.18 0-1.63zM71.66 21.16a1.13 1.13 0 0 0-1.61 0l-4.57 4.62a1.16 1.16 0 0 0 0 1.64 1.13 1.13 0 0 0 1.61 0l4.57-4.63c.45-.45.45-1.18 0-1.63zM71.66.34a1.13 1.13 0 0 0-1.61 0l-4.57 4.62a1.16 1.16 0 0 0 0 1.64 1.13 1.13 0 0 0 1.61 0l4.57-4.63c.45-.45.45-1.18 0-1.63zM66.28 50.87H45.71c-.63 0-1.14.52-1.14 1.16v20.81c0 .64.5 1.16 1.14 1.16h20.57c.64 0 1.15-.52 1.15-1.16V52.03c0-.64-.51-1.16-1.15-1.16zM65.14 71.7H46.85v-18.5h18.3v18.5z"/>
  <path fill="#fff" d="M70.86 46.24H50.28c-.63 0-1.14.52-1.14 1.16 0 .64.51 1.16 1.14 1.16h19.43v19.66a1.15 1.15 0 0 0 2.29 0V47.4c0-.64-.51-1.16-1.14-1.16z"/>
  <path fill="#fff" d="M51.1 46.58a1.13 1.13 0 0 0-1.62 0l-4.58 4.63a1.16 1.16 0 0 0 0 1.63 1.13 1.13 0 0 0 1.62 0l4.57-4.62c.45-.45.45-1.18 0-1.64zM71.66 67.4a1.13 1.13 0 0 0-1.61 0l-4.57 4.63a1.16 1.16 0 0 0 0 1.63 1.13 1.13 0 0 0 1.61 0l4.57-4.63c.45-.45.45-1.18 0-1.63zM71.66 46.58a1.13 1.13 0 0 0-1.61 0l-4.57 4.63a1.16 1.16 0 0 0 0 1.63 1.13 1.13 0 0 0 1.61 0l4.57-4.62c.45-.45.45-1.18 0-1.64zM58.29 40.46c-.64 0-1.15.52-1.15 1.16v8.1a1.15 1.15 0 0 0 2.29 0v-8.1c0-.64-.51-1.16-1.14-1.16z"/>
  <path fill="#fff" d="M58.28 31.21a4.6 4.6 0 0 0-4.57 4.63v4.62a4.6 4.6 0 0 0 4.57 4.63 4.6 4.6 0 0 0 4.58-4.63v-4.62a4.6 4.6 0 0 0-4.58-4.63zm2.3 9.25a2.3 2.3 0 0 1-2.3 2.32A2.3 2.3 0 0 1 56 40.46v-4.62a2.3 2.3 0 0 1 2.28-2.32 2.3 2.3 0 0 1 2.3 2.32v4.62z"/>
  <path fill="#fff" d="M58.29 25.43c-.64 0-1.15.51-1.15 1.15v8.1c0 .64.51 1.16 1.15 1.16.63 0 1.14-.52 1.14-1.16v-8.1c0-.64-.51-1.15-1.14-1.15z"/>
</svg>