<svg xmlns="http://www.w3.org/2000/svg" fill="none" viewBox="0 0 74 74">
  <path fill="#fff" d="M37.96 35.91h-1.92a1.96 1.96 0 0 1 0-3.9h6.03v-2.18h-3.78v-3.98h-2.17v3.98h-.08a4.13 4.13 0 0 0 0 8.26h1.92a1.96 1.96 0 0 1 0 3.9h-6.03v2.18h4.19v3.98h2.17v-4a4.13 4.13 0 0 0-.33-8.24z"/>
  <path fill="#fff" d="M65.67 28.1a8.34 8.34 0 0 0 0-16.66 8.34 8.34 0 0 0-7.66 11.59l-7.1 4.19a17.08 17.08 0 0 0-9.13-6.55l.8-9.85a5.44 5.44 0 1 0-2.17-.17l-.77 9.54a17.07 17.07 0 0 0-14.68 4.8l-6.95-7.26a8.34 8.34 0 1 0-14.82-5.2 8.34 8.34 0 0 0 13.25 6.7l7.08 7.4a16.93 16.93 0 0 0-2.94 14.84l-8.8 2.87a6.16 6.16 0 1 0 .52 2.11l8.98-2.93a17.1 17.1 0 0 0 5.38 6.99l-4.06 5.13a8.34 8.34 0 1 0-4.28 15.47 8.34 8.34 0 0 0 5.98-14.12l4.17-5.27a16.91 16.91 0 0 0 15.83.65l5.08 9.26a6.87 6.87 0 1 0 1.92-1.02l-5.1-9.3a17.15 17.15 0 0 0 5.3-5.42l8.26 3.4a5.43 5.43 0 1 0 .83-2l-8.07-3.33a16.92 16.92 0 0 0-.47-14.89l7.07-4.17a8.31 8.31 0 0 0 6.55 3.2zm0-14.49a6.16 6.16 0 1 1-.01 12.33 6.16 6.16 0 0 1 .01-12.33zm-54.16 5.07a6.16 6.16 0 1 1 .02-12.32 6.16 6.16 0 0 1-.02 12.32zM6.15 50.83a3.99 3.99 0 1 1 .01-7.97 3.99 3.99 0 0 1 0 7.97zm18.32 11.95a6.16 6.16 0 1 1-12.32-.02 6.16 6.16 0 0 1 12.32.02zm29.04-.37a4.71 4.71 0 1 1-.01 9.43 4.71 4.71 0 0 1 0-9.43zm11.58-15.35a3.26 3.26 0 1 1 0 6.53 3.26 3.26 0 0 1 0-6.53zM38.67 5.43a3.26 3.26 0 1 1 6.52 0 3.26 3.26 0 0 1-6.52 0zM37 51.84A14.86 14.86 0 0 1 22.16 37c0-8.18 6.66-14.84 14.84-14.84S51.84 28.82 51.84 37 45.18 51.84 37 51.84z"/>
  <path fill="#fff" d="M46.67 41.08a10.48 10.48 0 0 1-2.25 3.34l-.08.08 1.52 1.55.1-.1a12.65 12.65 0 0 0 2.71-4.02l-2-.85zM42.81 45.74c-.54.36-1.13.68-1.73.93l.85 2c.73-.3 1.43-.68 2.09-1.12l-1.2-1.81zM41.93 25.33l-.85 2c.6.25 1.19.57 1.73.93l1.2-1.8a12.7 12.7 0 0 0-2.08-1.13zM45.95 28.04l-.1-.1-1.51 1.56.08.08c.96.97 1.72 2.09 2.25 3.34l2-.85a12.65 12.65 0 0 0-2.72-4.03zM28.14 27.95l-.1.1a12.65 12.65 0 0 0-2.71 4.02l2 .85a10.48 10.48 0 0 1 2.25-3.34l.08-.08-1.52-1.55zM32.07 25.33c-.73.3-1.43.68-2.09 1.12l1.2 1.81c.55-.36 1.14-.68 1.74-.93l-.85-2zM29.58 44.42a10.49 10.49 0 0 1-2.25-3.34l-2 .85c.64 1.5 1.55 2.86 2.72 4.03l.1.1 1.51-1.56-.08-.08zM31.19 45.74l-1.2 1.8c.65.45 1.35.83 2.08 1.13l.85-2c-.6-.25-1.19-.57-1.73-.93zM26.86 35.91H24.7v2.18h2.17V35.9zM49.3 35.91h-2.16v2.18h2.17V35.9zM11.51 8.54a3.96 3.96 0 0 0-3 1.37l1.63 1.43.1-.1c.33-.34.79-.52 1.27-.52.49 0 .94.18 1.28.53l1.54-1.54a3.96 3.96 0 0 0-2.82-1.17zM9.7 12.6l-2.17.07a3.97 3.97 0 0 0 1.17 2.67l1.53-1.53a1.8 1.8 0 0 1-.53-1.22zM68.49 16.95a4.08 4.08 0 0 0-.2-.19l-1.43 1.64.1.09c.33.34.52.8.52 1.28s-.19.94-.53 1.28l1.54 1.53a3.96 3.96 0 0 0 0-5.63zM65.53 15.79a3.97 3.97 0 0 0-2.67 1.16l1.53 1.54a1.8 1.8 0 0 1 1.22-.53l-.08-2.17zM21.13 59.96a4.08 4.08 0 0 0-.2-.19l-1.43 1.64.1.09a1.8 1.8 0 0 1 0 2.56l1.53 1.53a3.96 3.96 0 0 0 0-5.63zM18.18 58.8a3.97 3.97 0 0 0-2.68 1.16l1.54 1.54a1.8 1.8 0 0 1 1.21-.53l-.07-2.17z"/>
</svg>